<?xml version="1.0" standalone="no"?>
<!DOCTYPE svg PUBLIC "-//W3C//DTD SVG 20010904//EN"
 "http://www.w3.org/TR/2001/REC-SVG-20010904/DTD/svg10.dtd">
<svg version="1.0" xmlns="http://www.w3.org/2000/svg"
 width="584.000000pt" height="584.000000pt" viewBox="0 0 584.000000 584.000000"
 preserveAspectRatio="xMidYMid meet">
<metadata>
Created by potrace 1.11, written by Peter Selinger 2001-2013
</metadata>
<g transform="translate(0.000000,584.000000) scale(0.100000,-0.100000)"
fill="#000000" stroke="none">
<path d="M2729 5836 c-2 -2 -40 -6 -84 -10 -84 -7 -96 -8 -240 -32 -143 -24
-476 -115 -520 -142 -5 -4 -12 -7 -15 -7 -8 0 -83 -33 -188 -81 -51 -24 -96
-44 -100 -45 -4 -1 -19 -10 -34 -20 -14 -10 -29 -19 -32 -19 -6 0 -208 -121
-216 -130 -3 -3 -27 -20 -55 -39 -302 -207 -605 -526 -807 -851 -76 -122 -202
-379 -252 -513 -64 -173 -136 -447 -152 -582 -3 -22 -7 -49 -9 -60 -13 -62
-20 -204 -20 -390 0 -267 12 -376 62 -610 8 -38 16 -77 18 -85 47 -229 202
-595 360 -850 172 -277 428 -560 680 -752 39 -29 72 -55 75 -58 3 -3 39 -28
80 -56 399 -273 896 -450 1375 -492 160 -14 479 -8 650 12 198 24 471 95 685
179 827 325 1466 1019 1724 1870 20 64 37 127 40 139 2 13 11 55 20 93 47 209
61 353 61 625 -1 238 -6 302 -45 525 -31 174 -105 433 -155 542 -8 17 -15 33
-15 36 0 15 -100 223 -150 312 -160 283 -382 558 -620 765 -41 36 -77 67 -80
70 -3 3 -32 25 -65 50 -33 25 -62 48 -65 51 -22 25 -274 178 -395 239 -256
130 -476 206 -760 265 -83 17 -109 21 -185 30 -25 3 -58 8 -75 11 -34 5 -491
15 -496 10z"/>
</g>
</svg>
